<mxfile host="app.diagrams.net" modified="2021-07-24T08:49:36.057Z" agent="5.0 (Windows)" etag="FNWwO8euXvPAxmR62bxY" version="14.9.2" type="github">
  <diagram id="g2yPmT7MQt7GzCPcFH7Z" name="第 1 页">
    <mxGraphModel dx="1038" dy="536" grid="1" gridSize="10" guides="1" tooltips="1" connect="1" arrows="1" fold="1" page="1" pageScale="1" pageWidth="827" pageHeight="1169" math="0" shadow="0">
      <root>
        <mxCell id="0" />
        <mxCell id="1" parent="0" />
        <mxCell id="Ok9lzhFIB3tagr9eqbKH-2" value="已实现的系统" style="rounded=0;whiteSpace=wrap;html=1;fillColor=#dae8fc;strokeColor=#6c8ebf;" parent="1" vertex="1">
          <mxGeometry x="180" y="45" width="120" height="60" as="geometry" />
        </mxCell>
        <mxCell id="Ok9lzhFIB3tagr9eqbKH-3" value="&lt;b&gt;用户&lt;/b&gt;" style="shape=actor;whiteSpace=wrap;html=1;fillColor=#647687;strokeColor=#314354;fontColor=#ffffff;" parent="1" vertex="1">
          <mxGeometry x="30" y="20" width="80" height="110" as="geometry" />
        </mxCell>
        <mxCell id="Ok9lzhFIB3tagr9eqbKH-4" value="未实现的系统" style="rounded=0;whiteSpace=wrap;html=1;fillColor=#f5f5f5;strokeColor=#666666;fontColor=#333333;" parent="1" vertex="1">
          <mxGeometry x="360" y="45" width="120" height="60" as="geometry" />
        </mxCell>
        <mxCell id="Ok9lzhFIB3tagr9eqbKH-5" value="系统范围" style="rounded=0;whiteSpace=wrap;html=1;fillColor=#FFFFFF;dashed=1;" parent="1" vertex="1">
          <mxGeometry x="540" y="45" width="120" height="60" as="geometry" />
        </mxCell>
        <mxCell id="Ok9lzhFIB3tagr9eqbKH-7" value="调用" style="endArrow=classic;html=1;" parent="1" edge="1">
          <mxGeometry width="50" height="50" relative="1" as="geometry">
            <mxPoint x="726" y="74.5" as="sourcePoint" />
            <mxPoint x="806" y="74.5" as="targetPoint" />
          </mxGeometry>
        </mxCell>
        <mxCell id="CYCi7xAyzE8VpTctlMBN-1" value="数据库" style="strokeWidth=2;html=1;shape=mxgraph.flowchart.database;whiteSpace=wrap;fillColor=#dae8fc;strokeColor=#6c8ebf;" vertex="1" parent="1">
          <mxGeometry x="30" y="190" width="170" height="60" as="geometry" />
        </mxCell>
      </root>
    </mxGraphModel>
  </diagram>
</mxfile>
